<?xml version="1.0" ?>
<!-- Uploaded to: SVG Repo, www.svgrepo.com, Generator: SVG Repo Mixer Tools -->
<svg width="800px" height="800px" viewBox="0 0 48 48" id="svg5" version="1.1" xml:space="preserve" xmlns="http://www.w3.org/2000/svg" xmlns:svg="http://www.w3.org/2000/svg">
<defs id="defs2"/>
<g id="layer1" transform="translate(-314,-89)">
<path d="m 357.54111,101.5044 c 0,4.45788 -3.61382,8.07171 -8.07171,8.07171 -4.45789,0 -8.07173,-3.61383 -8.07173,-8.07171 0,-4.457888 3.61384,-8.071732 8.07173,-8.071732 4.45789,0 8.07171,3.613844 8.07171,8.071732 z" id="path36354" style="fill:#f2a50c;fill-opacity:1;fill-rule:evenodd;stroke:none;stroke-width:2;stroke-linecap:round;stroke-linejoin:round;stroke-miterlimit:4.1;stroke-opacity:1"/>
<path d="m 349.46882,93.432668 c -4.45788,0 -8.07031,3.614384 -8.07031,8.072272 0,0.84736 0.12897,1.66428 0.3711,2.43164 l 0.002,0.002 c 1.46054,1.45954 3.47713,2.36133 5.70508,2.36133 4.45788,0 8.07226,-3.61439 8.07226,-8.07227 0,-0.848892 -0.13204,-1.666993 -0.375,-2.435547 -1.46043,-1.458449 -3.47817,-2.359425 -5.70513,-2.359425 z" id="path28408" style="fill:#fcca3d;fill-opacity:1;fill-rule:evenodd;stroke:none;stroke-width:2;stroke-linecap:round;stroke-linejoin:round;stroke-miterlimit:4.1;stroke-opacity:1"/>
<path d="m 349.46882,95.196341 a 1.0057657,0.99425588 0 0 0 -1.0039,0.994138 v 0.874998 c -1.10125,0.394324 -1.91211,1.415778 -1.91211,2.628909 0,1.560234 1.34005,2.804684 2.91601,2.804684 0.53446,0 0.90625,0.37598 0.90625,0.81446 0,0.4385 -0.3718,0.8164 -0.90625,0.8164 -0.53445,0 -0.90429,-0.3779 -0.90429,-0.8164 a 1.0057657,0.99425588 0 0 0 -1.00586,-0.99414 1.0057657,0.99425588 0 0 0 -1.00586,0.99414 c 0,1.21311 0.8109,2.23457 1.91211,2.62891 v 0.875 a 1.0057657,0.99425588 0 0 0 1.0039,0.99413 1.0057657,0.99425588 0 0 0 1.00586,-0.99413 v -0.875 c 1.10121,-0.39434 1.91016,-1.4158 1.91016,-2.62891 0,-1.56023 -1.34006,-2.80469 -2.91602,-2.80469 -0.53446,0 -0.90429,-0.37594 -0.90429,-0.814454 0,-0.438494 0.36983,-0.814454 0.90429,-0.814454 0.53447,0 0.90625,0.37596 0.90625,0.814454 a 1.0057657,0.99425588 0 0 0 1.00586,0.996094 1.0057657,0.99425588 0 0 0 1.00391,-0.996094 c 0,-1.213131 -0.80891,-2.234585 -1.91016,-2.628909 v -0.874998 a 1.0057657,0.99425588 0 0 0 -1.00586,-0.994138 z" id="path36356" style="color:#000000;fill:#808b9b;fill-opacity:1;fill-rule:evenodd;stroke:none;stroke-width:0.999998;stroke-linecap:round;stroke-linejoin:round;stroke-miterlimit:4.1;-inkscape-stroke:none"/>
<path d="m 349.47243,112.41498 c -0.2652,4e-5 -0.51953,0.10542 -0.70703,0.29297 l -3,3 c -0.39042,0.39051 -0.39042,1.02355 0,1.41406 0.39051,0.39042 1.02355,0.39042 1.41406,0 l 1.29297,-1.29297 v 2.08594 c 0,1.11641 -0.88359,2 -2,2 h -23 c -2.19729,0 -4,1.80271 -4,4 v 4.0496 c 0,0.55228 0.44772,1 1,1 0.55228,0 1,-0.44772 1,-1 v -4.0496 c 0,-1.11641 0.88359,-2 2,-2 h 23 c 2.19729,0 4,-1.80271 4,-4 v -2.08594 l 1.29297,1.29297 c 0.39051,0.39042 1.02355,0.39042 1.41406,0 0.39042,-0.39051 0.39042,-1.02355 0,-1.41406 l -3,-3 c -0.1875,-0.18755 -0.44183,-0.29293 -0.70703,-0.29297 z" id="path36364" style="color:#000000;fill:#808b9b;fill-opacity:1;fill-rule:evenodd;stroke-linecap:round;stroke-linejoin:round;stroke-miterlimit:4.1"/>
<path d="m 321.98269,133.16845 c -1.43485,0.82841 -3.27648,0.32484 -4.11341,-1.12476 -0.83692,-1.44959 -0.35221,-3.29628 1.08264,-4.12469 1.43485,-0.82841 3.27648,-0.32483 4.1134,1.12476 0.83692,1.44959 0.35222,3.29628 -1.08263,4.12469 z" id="path24798" style="fill:#fafafa;fill-opacity:1;fill-rule:evenodd;stroke:none;stroke-width:2.00001;stroke-linecap:round;stroke-linejoin:round;stroke-miterlimit:4.1"/>
<path d="m 319.05867,127.8604 c -0.0357,0.0188 -0.0722,0.0382 -0.10742,0.0586 -1.43485,0.82841 -1.91895,2.67541 -1.08204,4.125 0.29951,0.51876 0.72855,0.91507 1.22071,1.17383 a 3.2840195,3.0835381 0 0 0 1.65234,-2.67383 3.2840195,3.0835381 0 0 0 -1.68359,-2.6836 z" id="path27559" style="fill:#e4e9ef;fill-opacity:1;fill-rule:evenodd;stroke-linecap:round;stroke-linejoin:round;stroke-miterlimit:4.1"/>
<path d="m 326.54109,102.43267 a 1,1 0 0 0 -0.70703,0.29297 1,1 0 0 0 0,1.41406 l 1.29297,1.29297 h -8.58594 a 1,1 0 0 0 -1,1 1,1 0 0 0 1,1 h 8.58594 l -1.29297,1.29297 a 1,1 0 0 0 0,1.41406 1,1 0 0 0 1.41406,0 l 3,-3 a 1.0001,1.0001 0 0 0 0,-1.41406 l -3,-3 a 1,1 0 0 0 -0.70703,-0.29297 z" id="path24642" style="color:#000000;fill:#808b9b;fill-opacity:1;fill-rule:evenodd;stroke-linecap:round;stroke-linejoin:round;stroke-miterlimit:4.1;-inkscape-stroke:none"/>
<path d="m 326.54109,92.432668 a 1,1 0 0 0 -0.70703,0.292969 1,1 0 0 0 0,1.414062 l 1.29297,1.292969 h -8.58594 a 1,1 0 0 0 -1,1 1,1 0 0 0 1,1 h 8.58594 l -1.29297,1.292969 a 1,1 0 0 0 0,1.414063 1,1 0 0 0 1.41406,0 l 3,-3.000001 a 1.0001,1.0001 0 0 0 0,-1.414062 l -3,-3 a 1,1 0 0 0 -0.70703,-0.292969 z" id="path36846" style="color:#000000;fill:#808b9b;fill-opacity:1;fill-rule:evenodd;stroke-linecap:round;stroke-linejoin:round;stroke-miterlimit:4.1;-inkscape-stroke:none"/>
<path d="m 333.93367,124.43658 a 1.0050932,0.99493286 0 0 0 -0.70899,0.29101 1.0050932,0.99493286 0 0 0 0,1.40626 l 1.41407,1.40038 -1.41407,1.40039 a 1.0050932,0.99493286 0 0 0 0,1.40626 1.0050932,0.99493286 0 0 0 1.41798,0 l 1.41601,-1.40235 1.41601,1.40235 a 1.0050932,0.99493286 0 0 0 1.41993,0 1.0050932,0.99493286 0 0 0 0,-1.40626 l -1.41602,-1.40039 1.41602,-1.40038 a 1.0050932,0.99493286 0 0 0 0,-1.40626 1.0050932,0.99493286 0 0 0 -0.71094,-0.29101 1.0050932,0.99493286 0 0 0 -0.70899,0.29101 l -1.41601,1.40234 -1.41601,-1.40234 a 1.0050932,0.99493286 0 0 0 -0.70899,-0.29101 z" id="path38822" style="color:#000000;fill:#ff5576;fill-opacity:1;fill-rule:evenodd;stroke-width:1;stroke-linecap:round;stroke-linejoin:round;stroke-miterlimit:4.1;-inkscape-stroke:none"/>
<path d="m 338.65578,114.40237 c 0,1.65682 -1.35692,2.99994 -3.03077,2.99994 -1.67385,0 -3.03077,-1.34312 -3.03077,-2.99994 0,-1.65682 1.35693,-2.99993 3.03077,-2.99993 1.67384,0 3.03077,1.34311 3.03077,2.99993 z" id="circle38820" style="fill:#fafafa;fill-opacity:1;fill-rule:evenodd;stroke:none;stroke-width:2.00001;stroke-linecap:round;stroke-linejoin:round;stroke-miterlimit:4.1"/>
<path d="m 335.62507,111.40337 c -1.67383,0 -3.03125,1.34123 -3.03125,2.99805 0,0.4173 0.0867,0.81473 0.24219,1.17578 a 3.2308495,3.3439944 0 0 0 0.62305,0.0703 3.2308495,3.3439944 0 0 0 3.23047,-3.34375 3.2308495,3.3439944 0 0 0 -0.0801,-0.73828 c -0.30868,-0.10488 -0.63975,-0.16211 -0.98438,-0.16211 z" id="path27540" style="fill:#e4e9ef;fill-opacity:1;fill-rule:evenodd;stroke:none;stroke-linecap:round;stroke-linejoin:round;stroke-miterlimit:4.1;stroke-opacity:1"/>
<path d="m 349.14265,95.442434 c -3.15834,0.09216 -5.87831,3.003091 -5.73979,6.162476 -0.0342,3.1598 2.78004,5.98593 5.93974,5.96536 3.12762,0.1494 6.03444,-2.50399 6.18043,-5.62999 0.30501,-3.127068 -2.20789,-6.168362 -5.33469,-6.46406 -0.3468,-0.04222 -0.6969,-0.04717 -1.04569,-0.03379 z" id="path25697" style="fill:none;fill-opacity:1;fill-rule:evenodd;stroke:none;stroke-width:2;stroke-linecap:round;stroke-linejoin:round;stroke-miterlimit:4.1;stroke-opacity:1"/>
</g>
</svg>